<svg version="1.1" id="Layer_1" xmlns="http://www.w3.org/2000/svg" xmlns:xlink="http://www.w3.org/1999/xlink" x="0px" y="0px"
	 width="100%" viewBox="0 0 1024 1008" enable-background="new 0 0 1024 1008" xml:space="preserve">
<path fill="#000000" opacity="1.000000" stroke="none" 
	d="
M656.678589,739.013428 
	C658.194824,741.772156 656.133545,742.521057 654.643738,743.447571 
	C630.095337,758.713379 603.631287,769.342590 575.586487,776.191223 
	C571.877991,777.096863 571.326660,774.839905 570.818054,772.262512 
	C569.091003,763.510620 566.144165,755.267029 560.994690,747.884521 
	C550.655029,733.061035 535.630249,727.325684 518.415588,726.517090 
	C502.222656,725.756531 486.954285,729.085205 473.612183,738.992188 
	C462.040009,747.584961 456.704102,759.633850 454.395660,773.388000 
	C454.259979,774.196106 454.119354,775.003418 453.904449,776.258118 
	C448.578827,776.534424 443.759247,774.459595 438.945709,773.075745 
	C415.456818,766.323303 393.240326,756.586060 372.211792,744.084717 
	C368.312836,741.766785 368.229767,739.865784 370.589417,736.260986 
	C387.129089,710.993347 384.518677,687.334656 363.268250,665.721375 
	C350.897491,653.139343 336.561951,644.832703 318.517120,644.324097 
	C307.955170,644.026428 298.656006,647.907654 290.029602,653.663452 
	C288.259583,654.844482 286.553040,656.120667 284.369537,657.670715 
	C267.273376,630.917603 255.647430,602.549805 248.846268,572.214844 
	C251.599014,570.237305 254.381409,570.357361 256.905914,569.721863 
	C283.746429,562.965027 298.325256,544.501709 298.880402,516.805664 
	C299.100159,505.843658 297.926544,495.213593 293.468292,485.091888 
	C285.800781,467.684082 272.556885,457.344604 253.784286,454.587585 
	C249.149734,453.906952 248.904480,452.193024 249.850632,448.429657 
	C256.598297,421.590698 266.862610,396.237793 281.130737,372.484772 
	C283.555939,368.447388 285.238312,367.699799 289.487183,370.519196 
	C306.422333,381.756561 324.591095,385.437195 343.274780,375.437805 
	C361.001465,365.950562 373.678284,351.441376 379.229340,331.901917 
	C383.428406,317.121338 381.243469,302.855255 371.930359,290.092590 
	C367.552307,284.092896 367.677185,284.077576 373.990417,280.287659 
	C397.601227,266.113800 422.835876,255.933350 449.575043,249.431061 
	C450.850281,249.120941 452.090546,248.489212 453.577820,249.007217 
	C454.997345,250.483429 455.028137,252.525558 455.473969,254.450500 
	C460.429260,275.844727 471.778534,291.734283 494.174835,296.940125 
	C510.451904,300.723633 526.647766,299.607574 542.082275,292.575958 
	C559.309937,284.727478 568.534058,270.892151 571.587891,252.552216 
	C571.775574,251.425369 571.598694,250.182205 573.359131,248.791840 
	C579.039673,250.322510 585.290405,251.872971 591.461365,253.693649 
	C613.634155,260.235474 634.517395,269.691864 654.287292,281.656982 
	C656.853638,283.210236 658.540710,284.362244 656.230347,287.758514 
	C636.395996,316.915680 643.017639,344.580719 669.895813,366.425629 
	C684.084412,377.957184 700.109436,383.870361 718.714783,379.649567 
	C724.983582,378.227478 730.605591,375.401215 735.822449,371.702087 
	C737.564697,370.466705 739.340027,369.277832 741.019043,368.123566 
	C752.469971,379.155487 775.975708,435.867432 776.536865,453.450043 
	C774.621338,454.877167 772.247742,454.945099 769.995483,455.407013 
	C743.941650,460.749878 727.772705,480.513397 727.171021,507.084076 
	C726.843445,521.550659 728.838684,535.318359 736.543640,547.840820 
	C744.553223,560.858398 756.338745,568.229309 771.280396,570.704895 
	C777.387573,571.716675 777.485718,571.652283 775.988037,577.566833 
	C769.238037,604.223511 758.979248,629.412170 744.739868,652.989380 
	C742.217773,657.165527 740.275513,657.388733 736.252991,654.749084 
	C711.735107,638.659912 688.104309,641.094482 666.858704,661.516235 
	C652.663574,675.161011 643.715088,691.029358 645.120300,711.496155 
	C645.835510,721.914001 650.347778,730.638855 656.678589,739.013428 
M640.938538,457.508911 
	C616.185120,400.563995 558.053711,366.766632 494.827087,374.608032 
	C469.982391,377.689301 447.076050,386.963959 427.487701,402.896667 
	C384.871033,437.560089 366.740936,482.721039 375.885406,536.625977 
	C387.849701,607.153687 449.244415,652.959717 514.012695,651.837158 
	C548.759521,651.234924 579.299988,639.720459 605.262451,616.871399 
	C649.676758,577.783203 664.825012,514.189636 640.938538,457.508911 
z"/>
<path fill="#000000" opacity="1.000000" stroke="none" 
	d="
M491.366577,578.367798 
	C501.873993,567.891479 512.256165,557.781738 522.348450,547.390503 
	C525.141235,544.515015 527.655029,543.886597 531.542847,544.738281 
	C575.664246,554.404663 615.956970,520.876160 614.664185,475.731964 
	C614.607483,473.749847 614.786194,471.697845 613.224060,469.987122 
	C610.616760,469.389618 609.413391,471.513153 607.955994,472.954376 
	C599.780823,481.038940 591.666016,489.184692 583.528748,497.307617 
	C574.359253,506.460999 562.162659,507.057648 552.755066,498.291931 
	C543.862671,490.006134 535.212463,481.438660 526.802856,472.662476 
	C518.322021,463.812042 518.594604,451.167206 527.310486,442.075562 
	C535.034302,434.018616 543.116699,426.306458 550.946045,418.348907 
	C552.492004,416.777710 555.334351,415.340332 554.284851,412.740845 
	C553.315979,410.341309 550.330994,410.519012 548.065613,410.493622 
	C511.916962,410.088837 482.795685,436.735535 479.105865,470.662109 
	C478.231598,478.700653 478.660065,486.637817 480.443024,494.466156 
	C481.118195,497.430634 480.491791,499.403625 478.440796,501.579407 
	C460.496185,520.616577 441.489899,538.594421 423.120697,557.206360 
	C416.802887,563.607727 410.441254,569.966064 404.062622,576.306824 
	C402.915558,577.447144 402.034149,579.002380 400.200043,579.257812 
	C374.667450,542.802612 369.849731,473.411774 415.940002,423.323669 
	C465.850372,369.084076 549.759888,366.884186 602.443237,415.641785 
	C658.192322,467.236755 658.233704,552.539124 607.207275,604.969666 
	C557.601074,655.940735 483.234711,651.707031 445.100891,624.968994 
	C460.490784,609.475525 475.811340,594.051880 491.366577,578.367798 
z"/>
</svg>